<?xml version="1.0" encoding="UTF-8" standalone="no"?>
<!DOCTYPE svg PUBLIC "-//W3C//DTD SVG 20010904//EN"
              "http://www.w3.org/TR/2001/REC-SVG-20010904/DTD/svg10.dtd">

<svg xmlns="http://www.w3.org/2000/svg"
     width="52.9241mm" height="52.9241mm"
     viewBox="0 0 200 200">
  <path id="Selection"
        fill="black" stroke="black" stroke-width="1"
        d="M 99.00,1.82
           C 92.18,2.97 81.89,8.37 75.00,11.08
             75.00,11.08 68.00,13.52 68.00,13.52
             68.00,13.52 53.00,20.47 53.00,20.47
             48.22,22.24 33.36,27.93 30.41,31.21
             28.65,33.18 25.12,41.18 23.86,44.00
             23.86,44.00 12.55,72.00 12.55,72.00
             10.55,76.94 1.67,95.14 1.53,99.00
             1.38,103.54 6.75,115.50 8.77,120.00
             8.77,120.00 16.09,138.00 16.09,138.00
             16.09,138.00 19.40,145.00 19.40,145.00
             19.40,145.00 22.31,153.00 22.31,153.00
             24.37,157.61 27.63,166.59 31.11,169.61
             35.23,173.19 58.84,182.22 66.00,185.62
             66.00,185.62 88.00,194.87 88.00,194.87
             91.34,196.30 96.46,199.43 100.00,199.29
             102.47,199.19 106.54,197.05 109.00,196.05
             109.00,196.05 130.00,187.06 130.00,187.06
             130.00,187.06 137.00,184.65 137.00,184.65
             137.00,184.65 158.00,175.26 158.00,175.26
             161.05,173.81 166.51,172.25 168.70,170.36
             172.41,167.16 175.89,155.92 178.00,151.00
             178.00,151.00 193.00,117.00 193.00,117.00
             194.33,113.67 197.99,105.07 198.39,102.00
             199.14,96.33 191.33,81.30 189.17,75.00
             189.17,75.00 182.11,57.00 182.11,57.00
             182.11,57.00 175.86,45.00 175.86,45.00
             174.37,41.63 171.46,32.50 169.49,30.42
             167.64,28.46 154.37,23.31 151.00,21.92
             151.00,21.92 118.00,8.27 118.00,8.27
             112.40,5.93 104.92,2.04 99.00,1.82 Z
           M 96.00,23.33
           C 100.66,22.81 108.17,22.70 110.97,27.34
             114.05,32.42 108.18,40.96 105.33,44.98
             104.01,46.84 102.46,49.26 99.95,49.46
             96.10,49.76 93.73,44.78 92.15,42.00
             87.64,34.03 84.40,26.23 96.00,23.33 Z
           M 92.00,33.00
           C 92.00,33.00 108.00,33.00 108.00,33.00
             104.61,27.35 95.49,27.64 92.00,33.00 Z
           M 169.00,83.00
           C 158.65,84.87 162.34,87.08 149.00,87.00
             146.71,86.98 144.16,87.10 142.09,85.98
             140.23,84.97 130.80,73.51 128.58,71.01
             128.58,71.01 114.59,58.68 114.59,58.68
             110.60,53.31 113.85,36.89 118.79,32.58
             122.58,29.26 131.60,34.98 136.00,36.49
             140.24,37.93 151.35,42.07 154.45,44.78
             157.07,47.09 159.43,53.64 160.80,57.00
             164.81,66.84 168.74,71.53 169.00,83.00 Z
           M 77.00,32.33
           C 78.81,32.18 80.70,31.80 82.30,32.99
             85.52,35.40 87.14,48.00 86.96,52.00
             86.42,63.97 76.44,64.13 68.52,73.17
             63.90,78.44 60.79,86.15 53.00,87.65
             47.96,88.63 32.17,85.39 30.86,79.79
             30.35,77.64 32.83,72.14 33.73,70.00
             33.73,70.00 44.07,46.27 44.07,46.27
             45.91,43.81 50.16,42.40 53.00,41.14
             58.40,38.75 71.55,33.63 77.00,32.33 Z
           M 120.00,37.00
           C 120.00,37.00 120.00,38.00 120.00,38.00
             120.00,38.00 121.00,37.00 121.00,37.00
             121.00,37.00 120.00,37.00 120.00,37.00 Z
           M 123.00,38.00
           C 128.01,42.77 141.51,45.18 148.87,51.68
             152.43,54.82 158.64,71.63 161.00,77.00
             162.53,72.19 159.19,68.49 157.54,64.00
             155.88,59.46 153.90,52.96 150.51,49.39
             147.86,46.60 141.67,44.70 138.00,43.32
             131.90,41.01 129.76,39.06 123.00,38.00 Z
           M 72.00,40.00
           C 72.00,40.00 72.00,41.00 72.00,41.00
             72.00,41.00 73.00,40.00 73.00,40.00
             73.00,40.00 72.00,40.00 72.00,40.00 Z
           M 38.00,78.00
           C 38.00,78.00 51.49,51.49 51.49,51.49
             51.49,51.49 70.00,42.00 70.00,42.00
             66.61,41.40 64.18,42.71 61.00,43.83
             57.96,44.91 51.95,47.58 49.68,49.77
             45.34,53.97 38.98,71.67 38.00,78.00 Z
           M 73.33,47.04
           C 69.75,51.29 74.14,53.04 76.69,51.63
             79.35,50.16 79.33,45.19 73.33,47.04 Z
           M 122.62,47.04
           C 119.99,51.27 124.20,53.31 126.69,51.92
             129.78,50.19 128.76,44.80 122.62,47.04 Z
           M 53.74,53.99
           C 49.61,59.82 54.60,70.93 63.00,69.62
             69.22,68.64 71.48,62.48 68.40,58.18
             65.20,53.72 58.68,51.85 53.74,53.99 Z
           M 148.00,53.00
           C 141.30,53.02 131.62,53.50 130.38,62.00
             130.10,63.95 130.42,65.90 131.74,67.43
             134.89,71.10 141.39,70.22 144.30,66.72
             146.82,63.70 147.68,56.89 148.00,53.00 Z
           M 61.13,58.56
           C 68.76,59.02 67.64,65.88 63.86,66.63
             59.22,67.55 55.30,61.19 61.13,58.56 Z
           M 133.16,66.84
           C 133.02,65.70 132.97,63.33 133.16,62.13
             136.08,52.50 148.13,63.90 137.94,66.84
             136.69,67.03 134.35,66.98 133.16,66.84 Z
           M 47.31,73.08
           C 43.49,77.21 47.27,79.65 49.79,78.60
             52.77,77.35 53.48,71.71 47.31,73.08 Z
           M 149.34,73.08
           C 145.47,77.88 152.00,80.62 153.60,76.83
             155.05,73.41 152.03,72.45 149.34,73.08 Z
           M 169.00,88.36
           C 177.14,88.74 177.56,97.47 176.83,104.00
             176.47,107.18 175.70,110.91 171.94,111.40
             168.82,111.80 148.62,106.65 151.64,98.21
             153.25,93.73 164.55,89.19 169.00,88.36 Z
           M 26.28,89.64
           C 32.00,88.73 48.42,92.73 48.63,100.02
             48.79,105.66 35.80,111.51 31.00,112.34
             19.83,114.25 22.86,93.55 24.31,91.31
             25.30,89.80 25.44,90.25 26.28,89.64 Z
           M 31.00,92.00
           C 26.85,99.62 27.95,100.13 30.00,108.00
             34.66,104.88 33.77,96.28 31.00,92.00 Z
           M 168.00,92.00
           C 168.00,92.00 168.00,109.00 168.00,109.00
             168.00,109.00 170.00,109.00 170.00,109.00
             172.28,101.98 172.92,99.01 170.00,92.00
             170.00,92.00 168.00,92.00 168.00,92.00 Z
           M 48.00,113.28
           C 63.78,111.87 60.57,121.44 75.09,133.41
             79.12,136.73 85.74,139.46 86.77,145.02
             87.81,150.58 86.08,158.82 83.91,164.00
             82.52,167.31 81.05,170.15 76.96,169.32
             76.96,169.32 55.00,160.04 55.00,160.04
             51.73,158.61 46.96,157.40 44.65,154.73
             42.54,152.29 42.02,148.90 40.80,146.00
             36.93,136.73 36.95,139.73 33.43,128.00
             32.61,125.24 30.47,121.12 32.06,118.39
             34.48,114.23 43.66,113.91 48.00,113.28 Z
           M 143.10,113.60
           C 149.14,112.26 165.53,113.96 168.95,119.63
             170.33,121.92 168.02,126.70 167.10,129.00
             167.10,129.00 156.19,153.73 156.19,153.73
             155.12,155.06 154.37,155.49 152.95,156.33
             147.17,159.76 135.59,164.20 129.00,166.70
             126.76,167.56 122.52,169.95 120.27,169.27
             116.49,168.13 113.12,155.70 113.02,152.00
             112.93,149.06 112.87,144.79 114.31,142.18
             116.47,138.29 123.96,135.42 131.54,127.16
             135.36,123.00 139.10,116.06 143.10,113.60 Z
           M 47.30,122.13
           C 42.99,126.56 48.38,129.03 50.53,127.85
             52.69,126.66 53.21,121.01 47.30,122.13 Z
           M 150.14,122.17
           C 144.89,126.56 150.14,129.21 152.76,127.87
             155.45,126.50 156.00,121.61 150.14,122.17 Z
           M 37.00,122.00
           C 37.00,122.00 37.00,123.00 37.00,123.00
             37.00,123.00 38.00,122.00 38.00,122.00
             38.00,122.00 37.00,122.00 37.00,122.00 Z
           M 160.00,126.00
           C 158.30,130.86 152.20,145.65 148.89,148.79
             143.39,154.01 131.61,156.69 124.00,161.00
             128.73,162.28 132.75,159.15 137.00,157.34
             141.07,155.60 147.19,154.18 150.59,151.20
             152.71,149.33 153.56,146.54 154.60,144.00
             156.62,139.09 160.95,131.23 160.00,126.00 Z
           M 39.00,127.00
           C 41.06,132.93 44.98,146.49 48.79,150.61
             51.58,153.64 55.34,154.28 59.00,155.75
             66.16,158.64 68.74,160.72 77.00,162.00
             77.00,162.00 52.27,149.51 52.27,149.51
             52.27,149.51 39.00,127.00 39.00,127.00 Z
           M 53.21,146.80
           C 55.46,147.00 59.74,147.13 62.00,146.80
             63.73,146.21 65.47,145.48 66.85,144.35
             75.61,137.24 63.88,123.78 55.43,134.11
             54.42,135.34 53.85,136.47 53.21,138.00
             52.86,140.08 53.00,144.67 53.21,146.80 Z
           M 148.00,147.00
           C 147.97,143.89 148.07,142.03 147.05,139.00
             146.52,137.45 145.22,134.53 144.19,133.30
             137.56,125.41 124.03,134.95 133.15,143.77
             134.26,144.86 135.55,145.70 137.00,146.26
             139.09,147.07 141.78,146.99 144.00,147.00
             144.00,147.00 148.00,147.00 148.00,147.00 Z
           M 61.14,133.62
           C 69.16,132.41 67.09,140.04 63.78,141.38
             59.24,143.23 55.35,137.60 61.14,133.62 Z
           M 135.31,133.62
           C 143.32,132.37 143.41,139.82 139.61,141.64
             135.77,143.48 130.24,137.85 135.31,133.62 Z
           M 73.00,147.00
           C 72.58,148.02 72.08,148.78 71.91,149.96
             70.69,158.63 84.19,151.94 75.85,147.85
             75.85,147.85 73.00,147.00 73.00,147.00 Z
           M 124.11,148.36
           C 119.33,152.10 123.30,154.96 125.86,153.83
             128.33,152.74 129.80,148.02 124.11,148.36 Z
           M 98.04,151.82
           C 99.99,151.34 100.84,150.92 102.79,151.82
             106.07,153.89 113.76,167.67 110.96,172.89
             108.91,176.73 104.81,176.95 101.00,177.00
             97.52,177.04 92.32,177.53 89.90,174.57
             86.79,170.75 91.25,158.64 93.85,155.06
             95.44,152.87 95.85,152.85 98.04,151.82 Z
           M 92.00,167.00
           C 95.88,174.06 102.04,172.03 108.00,169.00
             103.67,165.81 97.17,167.00 92.00,167.00 Z" />
</svg>
